# xmcd CD database file
#
# Track frame offsets:
#	150
#	16853
#	52734
#	75580
#	94122
#	125782
#	155152
#	183622
#	201229
#	239189
#	260789
#	288598
#
# Disc length: 4055 seconds
#
# Revision: 3
# Processed by: cddbd v1.5.2PL0 Copyright (c) Steve Scherf et al.
# Submitted via: CDex 1.51
#
DISCID=b20fd50c
DTITLE=Otis Rush - All Your Love I Miss Loving - Live At The Wise Fools Pub Chicago
DYEAR=1976
DGENRE=Blues
TTITLE0=Please Love Me
TTITLE1=You're Breaking My Heart
TTITLE2=All Your Love (I Miss Loving)
TTITLE3=Will My Woman Be Home Tonight
TTITLE4=Mean Old World
TTITLE5=Woke Up This Morning
TTITLE6=High Society
TTITLE7=It Takes Time
TTITLE8=Gambler's Blues
TTITLE9=Feel So Bad
TTITLE10=Sweet Little Angel
TTITLE11=Motoring Along
EXTD=YEAR: 1976
EXTT0=
EXTT1=
EXTT2=
EXTT3=
EXTT4=
EXTT5=
EXTT6=
EXTT7=
EXTT8=
EXTT9=
EXTT10=
EXTT11=
PLAYORDER=
